<svg version="1.1" id="derm-logo" xmlns="http://www.w3.org/2000/svg" xmlns:xlink="http://www.w3.org/1999/xlink" x="0px" y="0px" width="255.802px" height="78px" viewBox="0 0 255.802 78" enable-background="new 0 0 255.802 78" xml:space="preserve">
<g>
	<path fill="#174A7C" d="M29.53,8.907c0-4.488,0-5.304-0.068-6.222c-0.068-0.986-0.238-1.462-1.224-1.598
		C28,1.054,27.49,1.02,27.218,1.02c-0.102,0-0.238-0.136-0.238-0.238c0-0.17,0.136-0.238,0.476-0.238
		c1.36,0,3.297,0.068,3.468,0.068c0.34,0,2.244-0.068,4.011-0.068c2.992,0,8.465-0.272,12.001,3.298
		c1.496,1.496,2.924,3.909,2.924,7.343c0,3.637-1.564,6.425-3.23,8.125c-1.292,1.326-3.978,3.332-9.077,3.332
		c-1.292,0-2.89-0.102-4.182-0.17c-1.292-0.102-2.312-0.17-2.447-0.17c-0.068,0-0.612,0.034-1.224,0.034
		c-0.612,0.034-1.326,0.068-1.802,0.068c-0.306,0-0.476-0.068-0.476-0.238c0-0.102,0.068-0.238,0.238-0.238
		c0.271,0,0.646-0.068,0.917-0.136c0.578-0.136,0.646-0.68,0.782-1.53c0.17-1.189,0.17-3.467,0.17-6.255V8.907z M32.25,12.035
		c0,3.06,0,5.746,0.034,6.29c0.034,0.714,0.102,1.768,0.34,2.074c0.374,0.544,1.428,1.156,4.963,1.156
		c2.754,0,5.202-0.918,7.003-2.618c1.564-1.462,2.346-4.215,2.346-6.867c0-3.672-1.598-6.018-2.822-7.241
		c-2.822-2.856-6.119-3.23-9.689-3.23c-0.578,0-1.53,0.102-1.802,0.204S32.25,2.04,32.25,2.38V12.035z"></path>
	<path fill="#174A7C" d="M54.01,8.907c0-4.488,0-5.304-0.068-6.222c-0.068-0.986-0.238-1.462-1.224-1.598
		C52.48,1.054,51.97,1.02,51.698,1.02c-0.102,0-0.238-0.136-0.238-0.238c0-0.17,0.136-0.238,0.476-0.238
		c1.36,0,3.297,0.068,3.467,0.068c0.204,0,6.459,0.034,7.14,0c0.578-0.034,1.122-0.136,1.36-0.17
		c0.136-0.034,0.272-0.136,0.408-0.136c0.102,0,0.136,0.136,0.136,0.272c0,0.204-0.17,0.544-0.238,1.36
		c-0.034,0.272-0.102,1.563-0.17,1.904c-0.034,0.136-0.136,0.306-0.272,0.306c-0.17,0-0.238-0.136-0.238-0.374
		c0-0.204-0.034-0.68-0.17-1.02c-0.204-0.476-0.51-0.68-2.142-0.884c-0.51-0.068-3.978-0.102-4.317-0.102
		c-0.136,0-0.17,0.102-0.17,0.306v7.853c0,0.204,0,0.306,0.17,0.306c0.374,0,4.317,0,4.998-0.068
		c0.714-0.068,1.156-0.102,1.462-0.408c0.204-0.204,0.34-0.374,0.442-0.374s0.17,0.068,0.17,0.238s-0.17,0.646-0.238,1.598
		c-0.068,0.578-0.136,1.666-0.136,1.87c0,0.238-0.068,0.544-0.272,0.544c-0.136,0-0.204-0.102-0.204-0.272
		c0-0.272,0-0.578-0.136-0.952c-0.102-0.408-0.374-0.748-1.53-0.884c-0.816-0.102-4.012-0.136-4.521-0.136
		c-0.17,0-0.204,0.102-0.204,0.204v2.414c0,0.986-0.034,4.352,0,4.929c0.068,1.938,0.612,2.312,3.569,2.312
		c0.782,0,2.21,0,2.992-0.306c0.782-0.34,1.189-0.85,1.359-2.006c0.068-0.34,0.136-0.442,0.306-0.442s0.204,0.238,0.204,0.442
		s-0.238,2.176-0.408,2.788c-0.204,0.748-0.51,0.748-1.666,0.748c-2.244,0-3.978-0.068-5.202-0.102
		c-1.258-0.068-2.04-0.068-2.482-0.068c-0.068,0-0.646,0-1.292,0.034c-0.578,0.034-1.258,0.068-1.734,0.068
		c-0.306,0-0.476-0.068-0.476-0.238c0-0.102,0.068-0.238,0.238-0.238c0.272,0,0.646-0.102,0.918-0.136
		c0.578-0.102,0.646-0.68,0.782-1.53c0.17-1.189,0.17-3.467,0.17-6.255V8.907z"></path>
	<path fill="#174A7C" d="M70.024,8.907c0-4.488,0-5.304-0.068-6.222c-0.068-0.986-0.238-1.462-1.224-1.598
		c-0.238-0.034-0.748-0.068-1.02-0.068c-0.102,0-0.238-0.136-0.238-0.238c0-0.17,0.136-0.238,0.476-0.238
		c1.36,0,3.366,0.068,3.536,0.068c0.306,0,2.822-0.068,3.74-0.068c1.903,0,4.011,0.17,5.575,1.258
		c0.748,0.544,2.074,1.938,2.074,3.944c0,2.142-0.884,4.215-3.671,6.595c2.448,3.06,4.521,5.677,6.255,7.479
		c1.598,1.632,2.583,1.904,3.332,2.006c0.578,0.102,0.884,0.102,1.054,0.102s0.272,0.136,0.272,0.238c0,0.17-0.17,0.238-0.714,0.238
		h-1.87c-1.7,0-2.448-0.17-3.196-0.578c-1.292-0.68-2.38-2.074-4.08-4.25c-1.258-1.564-2.584-3.434-3.229-4.215
		c-0.136-0.136-0.204-0.17-0.408-0.17l-3.808-0.068c-0.136,0-0.204,0.068-0.204,0.238v0.68c0,2.788,0,5.032,0.136,6.221
		c0.102,0.85,0.272,1.394,1.19,1.53c0.408,0.068,1.054,0.136,1.326,0.136c0.204,0,0.238,0.136,0.238,0.238
		c0,0.136-0.136,0.238-0.476,0.238c-1.632,0-3.536-0.102-3.672-0.102c-0.034,0-2.04,0.102-2.958,0.102
		c-0.306,0-0.476-0.068-0.476-0.238c0-0.102,0.068-0.238,0.238-0.238c0.271,0,0.646-0.068,0.917-0.136
		c0.578-0.136,0.646-0.68,0.782-1.53c0.17-1.189,0.17-3.467,0.17-6.255V8.907z M72.607,11.355c0,0.17,0.068,0.272,0.204,0.374
		c0.442,0.238,1.972,0.442,3.298,0.442c0.714,0,1.53-0.034,2.244-0.51c1.02-0.68,1.802-2.209,1.802-4.419
		c0-3.604-1.972-5.677-5.167-5.677c-0.884,0-1.836,0.102-2.142,0.17c-0.136,0.068-0.238,0.17-0.238,0.34V11.355z"></path>
	<path fill="#174A7C" d="M112.556,18.664c0.102,1.02,0.306,2.584,1.53,2.992c0.85,0.272,1.632,0.272,1.938,0.272
		c0.136,0,0.238,0.068,0.238,0.204c0,0.17-0.272,0.272-0.612,0.272c-0.68,0-4.012-0.068-5.1-0.17c-0.714-0.068-0.85-0.17-0.85-0.306
		c0-0.102,0.068-0.204,0.204-0.238c0.17-0.034,0.204-0.476,0.136-1.02l-1.428-14.619h-0.068l-7.207,14.754
		c-0.612,1.258-0.782,1.53-1.054,1.53s-0.442-0.272-1.02-1.326c-0.782-1.428-2.753-5.133-3.501-6.697
		c-0.884-1.836-3.298-6.697-3.808-7.887h-0.136L90.662,19.48c-0.034,0.442-0.034,0.986-0.034,1.462c0,0.442,0.272,0.714,0.714,0.816
		c0.51,0.136,0.952,0.17,1.156,0.17c0.102,0,0.238,0.102,0.238,0.204c0,0.204-0.204,0.272-0.544,0.272
		c-1.122,0-2.55-0.102-2.788-0.102c-0.272,0-1.7,0.102-2.516,0.102c-0.306,0-0.51-0.068-0.51-0.272c0-0.102,0.136-0.204,0.306-0.204
		c0.238,0,0.442-0.034,0.884-0.102c0.986-0.17,1.02-1.224,1.156-2.312L90.9,0.646c0.034-0.306,0.17-0.51,0.34-0.51
		c0.204,0,0.442,0.102,0.612,0.442l9.043,17.95l8.703-17.917c0.136-0.272,0.272-0.476,0.476-0.476s0.374,0.238,0.442,0.782
		L112.556,18.664z"></path>
	<path fill="#174A7C" d="M124.015,1.122C124.389,0.17,124.524,0,124.729,0c0.306,0,0.408,0.408,0.714,1.054
		c0.544,1.224,5.337,13.157,7.173,17.542c1.088,2.583,1.904,2.958,2.55,3.162c0.442,0.136,0.884,0.17,1.19,0.17
		c0.17,0,0.374,0.068,0.374,0.238c0,0.17-0.34,0.238-0.68,0.238c-0.442,0-2.652,0-4.726-0.068c-0.578-0.034-1.054-0.034-1.054-0.204
		c0-0.136,0.068-0.136,0.204-0.204c0.17-0.068,0.476-0.306,0.272-0.782l-2.686-6.629c-0.068-0.136-0.102-0.17-0.272-0.17h-6.901
		c-0.136,0-0.238,0.068-0.306,0.238l-1.7,4.624c-0.272,0.714-0.442,1.428-0.442,1.938c0,0.578,0.51,0.782,1.02,0.782h0.272
		c0.238,0,0.306,0.102,0.306,0.238c0,0.17-0.17,0.238-0.442,0.238c-0.714,0-2.346-0.102-2.686-0.102
		c-0.306,0-1.802,0.102-3.026,0.102c-0.374,0-0.578-0.068-0.578-0.238c0-0.136,0.136-0.238,0.272-0.238
		c0.204,0,0.646-0.034,0.884-0.068c1.36-0.17,1.938-1.19,2.516-2.652L124.015,1.122z M127.346,13.157
		c0.136,0,0.136-0.068,0.102-0.204l-2.958-7.921c-0.17-0.442-0.34-0.442-0.51,0l-2.788,7.921c-0.034,0.136,0,0.204,0.102,0.204
		H127.346z"></path>
	<path fill="#174A7C" d="M142.307,14.007c0,2.788,0,5.065,0.136,6.255c0.102,0.85,0.238,1.394,1.156,1.53
		c0.408,0.068,1.088,0.136,1.36,0.136c0.204,0,0.238,0.136,0.238,0.238c0,0.136-0.136,0.238-0.476,0.238
		c-1.632,0-3.536-0.102-3.706-0.102c-0.136,0-2.21,0.102-3.094,0.102c-0.34,0-0.476-0.068-0.476-0.238
		c0-0.102,0.068-0.204,0.238-0.204c0.272,0,0.612-0.068,0.884-0.136c0.612-0.136,0.782-0.714,0.884-1.564
		c0.136-1.189,0.136-3.467,0.136-6.255V1.87l-4.317,0.068c-1.87,0.034-2.584,0.238-3.026,0.917c-0.34,0.51-0.374,0.714-0.476,0.918
		c-0.068,0.238-0.17,0.272-0.306,0.272c-0.068,0-0.204-0.068-0.204-0.238c0-0.306,0.612-2.89,0.646-3.128
		c0.068-0.17,0.204-0.544,0.306-0.544c0.204,0,0.51,0.238,1.326,0.34c0.85,0.102,2.005,0.136,2.346,0.136h11.287
		c0.986,0,1.666-0.068,2.142-0.136c0.442-0.068,0.714-0.136,0.85-0.136c0.136,0,0.136,0.17,0.136,0.34
		c0,0.884-0.102,2.958-0.102,3.298c0,0.238-0.136,0.374-0.272,0.374c-0.136,0-0.204-0.102-0.238-0.51l-0.034-0.306
		c-0.102-0.884-0.748-1.53-3.604-1.598l-3.74-0.068V14.007z"></path>
	<path fill="#174A7C" d="M161.481,0.136c6.731,0,11.831,4.114,11.831,10.845c0,6.459-4.794,11.797-12.001,11.797
		c-8.193,0-11.695-6.153-11.695-11.355C149.617,6.765,153.221,0.136,161.481,0.136z M162.161,21.588
		c2.686,0,8.092-1.428,8.092-9.791c0-6.936-4.216-10.573-8.941-10.573c-4.997,0-8.601,3.128-8.601,9.417
		C152.71,17.372,156.757,21.588,162.161,21.588z"></path>
	<path fill="#174A7C" d="M179.571,14.075c0,4.25,0.067,5.983,0.611,6.493c0.477,0.476,1.632,0.68,3.978,0.68
		c1.563,0,2.89-0.034,3.604-0.884c0.374-0.442,0.612-1.054,0.714-1.632c0.034-0.204,0.137-0.374,0.307-0.374
		c0.136,0,0.203,0.136,0.203,0.442c0,0.306-0.203,2.04-0.441,2.89c-0.204,0.68-0.307,0.782-1.904,0.782
		c-2.142,0-3.807-0.034-5.201-0.102c-1.359-0.034-2.38-0.068-3.264-0.068c-0.136,0-0.646,0-1.224,0.034
		c-0.612,0.034-1.258,0.068-1.733,0.068c-0.307,0-0.477-0.068-0.477-0.238c0-0.102,0.068-0.238,0.238-0.238
		c0.271,0,0.646-0.068,0.918-0.136c0.578-0.136,0.646-0.68,0.781-1.53c0.17-1.189,0.17-3.467,0.17-6.255v-5.1
		c0-4.488,0-5.304-0.067-6.222c-0.068-0.986-0.238-1.462-1.224-1.598c-0.238-0.034-0.748-0.068-1.021-0.068
		c-0.102,0-0.237-0.136-0.237-0.238c0-0.17,0.136-0.238,0.476-0.238c1.36,0,3.229,0.068,3.399,0.068c0.137,0,2.38-0.068,3.298-0.068
		c0.306,0,0.476,0.068,0.476,0.238c0,0.102-0.136,0.204-0.238,0.204c-0.203,0-0.646,0.034-0.985,0.068
		c-0.884,0.17-1.054,0.612-1.122,1.632c-0.033,0.918-0.033,1.734-0.033,6.222V14.075z"></path>
	<path fill="#174A7C" d="M200.038,0.136c6.731,0,11.83,4.114,11.83,10.845c0,6.459-4.793,11.797-12,11.797
		c-8.193,0-11.695-6.153-11.695-11.355C188.173,6.765,191.776,0.136,200.038,0.136z M200.718,21.588
		c2.686,0,8.091-1.428,8.091-9.791c0-6.936-4.215-10.573-8.94-10.573c-4.998,0-8.602,3.128-8.602,9.417
		C191.267,17.372,195.312,21.588,200.718,21.588z"></path>
	<path fill="#174A7C" d="M230.399,15.026c0-2.346-0.067-2.686-1.292-2.924c-0.237-0.034-0.747-0.068-1.02-0.068
		c-0.102,0-0.238-0.136-0.238-0.238c0-0.204,0.137-0.238,0.477-0.238c1.359,0,3.365,0.068,3.535,0.068
		c0.136,0,2.006-0.068,2.924-0.068c0.34,0,0.476,0.034,0.476,0.238c0,0.102-0.136,0.238-0.237,0.238c-0.204,0-0.408,0-0.748,0.068
		c-0.816,0.136-1.054,0.578-1.122,1.598c-0.034,0.918-0.034,1.768-0.034,2.992v3.229c0,1.326-0.034,1.36-0.407,1.564
		c-1.904,0.986-4.624,1.292-6.357,1.292c-2.278,0-6.527-0.272-9.859-3.094c-1.836-1.53-3.569-4.624-3.569-8.227
		c0-4.624,2.346-7.887,4.997-9.485c2.686-1.632,5.678-1.836,7.955-1.836c1.904,0,4.012,0.34,4.59,0.476
		c0.612,0.136,1.666,0.306,2.414,0.306c0.306,0,0.374,0.136,0.374,0.272c0,0.408-0.171,1.19-0.171,4.08
		c0,0.476-0.136,0.612-0.34,0.612c-0.17,0-0.203-0.17-0.203-0.442c-0.034-0.374-0.204-1.224-0.681-1.904
		c-0.748-1.088-3.025-2.244-6.901-2.244c-1.802,0-3.978,0.136-6.255,1.87c-1.734,1.326-2.958,3.91-2.958,7.275
		c0,4.08,2.107,7.003,3.162,7.989c2.38,2.209,4.896,3.025,7.648,3.025c1.055,0,2.448-0.102,3.23-0.544
		c0.374-0.204,0.611-0.34,0.611-0.884V15.026z"></path>
	<path fill="#174A7C" d="M242.81,14.891c0-1.564-0.204-2.142-0.646-2.958c-0.238-0.442-4.284-6.867-5.304-8.397
		c-0.714-1.088-1.428-1.734-1.972-2.108c-0.442-0.272-1.021-0.408-1.258-0.408c-0.17,0-0.306-0.136-0.306-0.272
		c0-0.136,0.102-0.204,0.373-0.204c0.578,0,2.822,0.068,2.958,0.068c0.204,0,1.428-0.068,2.584-0.068
		c0.34,0,0.408,0.068,0.408,0.204c0,0.102-0.204,0.204-0.477,0.306c-0.237,0.102-0.374,0.238-0.374,0.476
		c0,0.408,0.204,0.748,0.408,1.122l5.439,9.009c0.612-1.224,4.352-7.411,4.896-8.363c0.374-0.646,0.51-1.122,0.51-1.496
		c0-0.408-0.136-0.646-0.476-0.748c-0.272-0.068-0.442-0.204-0.442-0.34c0-0.102,0.17-0.17,0.477-0.17
		c0.781,0,1.836,0.068,2.073,0.068c0.204,0,2.346-0.068,2.924-0.068c0.204,0,0.374,0.068,0.374,0.17
		c0,0.136-0.136,0.306-0.374,0.306c-0.34,0-0.918,0.102-1.394,0.374c-0.578,0.34-0.851,0.646-1.496,1.428
		c-0.985,1.156-5.201,7.955-5.813,9.179c-0.51,1.02-0.374,1.938-0.374,2.89v2.481c0,0.476,0,1.7,0.103,2.89
		c0.067,0.85,0.271,1.394,1.155,1.53c0.408,0.068,1.088,0.136,1.36,0.136c0.17,0,0.237,0.136,0.237,0.238
		c0,0.136-0.17,0.238-0.476,0.238c-1.666,0-3.604-0.102-3.773-0.102c-0.136,0-2.04,0.102-2.924,0.102
		c-0.34,0-0.476-0.068-0.476-0.238c0-0.102,0.067-0.238,0.237-0.238c0.272,0,0.612-0.068,0.884-0.136
		c0.612-0.136,0.816-0.68,0.885-1.53c0.067-1.189,0.067-2.414,0.067-2.89V14.891z"></path>
</g>
<g>
	<path fill="#6D6E71" d="M32.25,40.944c0,4.25,0.068,5.983,0.612,6.493c0.476,0.476,1.632,0.68,3.978,0.68
		c1.564,0,2.89-0.034,3.604-0.884c0.374-0.442,0.612-1.054,0.714-1.632c0.034-0.204,0.136-0.374,0.306-0.374
		c0.136,0,0.204,0.136,0.204,0.442c0,0.306-0.204,2.04-0.442,2.89c-0.204,0.68-0.306,0.782-1.904,0.782
		c-2.142,0-3.808-0.034-5.202-0.102c-1.36-0.034-2.38-0.068-3.264-0.068c-0.136,0-0.646,0-1.224,0.034
		c-0.612,0.034-1.258,0.068-1.734,0.068c-0.306,0-0.476-0.068-0.476-0.238c0-0.102,0.068-0.238,0.238-0.238
		c0.271,0,0.646-0.068,0.917-0.136c0.578-0.136,0.646-0.68,0.782-1.53c0.17-1.189,0.17-3.467,0.17-6.255v-5.1
		c0-4.488,0-5.304-0.068-6.222c-0.068-0.986-0.238-1.462-1.224-1.598C28,27.923,27.49,27.89,27.218,27.89
		c-0.102,0-0.238-0.136-0.238-0.238c0-0.17,0.136-0.238,0.476-0.238c1.36,0,3.229,0.068,3.399,0.068c0.136,0,2.38-0.068,3.298-0.068
		c0.306,0,0.476,0.068,0.476,0.238c0,0.102-0.136,0.204-0.238,0.204c-0.204,0-0.646,0.034-0.986,0.068
		c-0.884,0.17-1.054,0.612-1.122,1.632c-0.034,0.918-0.034,1.734-0.034,6.222V40.944z"></path>
	<path fill="#6D6E71" d="M49.861,27.992c0.374-0.952,0.51-1.122,0.714-1.122c0.306,0,0.408,0.408,0.714,1.054
		c0.544,1.224,5.337,13.157,7.173,17.542c1.088,2.583,1.904,2.958,2.55,3.162c0.442,0.136,0.884,0.17,1.189,0.17
		c0.17,0,0.374,0.068,0.374,0.238c0,0.17-0.34,0.238-0.68,0.238c-0.442,0-2.652,0-4.726-0.068c-0.578-0.034-1.054-0.034-1.054-0.204
		c0-0.136,0.068-0.136,0.204-0.204c0.17-0.068,0.476-0.306,0.272-0.782l-2.686-6.629c-0.068-0.136-0.102-0.17-0.272-0.17h-6.901
		c-0.136,0-0.238,0.068-0.306,0.238l-1.7,4.624c-0.272,0.714-0.442,1.428-0.442,1.938c0,0.578,0.51,0.782,1.02,0.782h0.272
		c0.238,0,0.306,0.102,0.306,0.238c0,0.17-0.17,0.238-0.442,0.238c-0.714,0-2.346-0.102-2.686-0.102
		c-0.306,0-1.802,0.102-3.026,0.102c-0.374,0-0.578-0.068-0.578-0.238c0-0.136,0.136-0.238,0.272-0.238
		c0.204,0,0.646-0.034,0.884-0.068c1.36-0.17,1.938-1.19,2.516-2.652L49.861,27.992z M53.192,40.026
		c0.136,0,0.136-0.068,0.102-0.204l-2.958-7.921c-0.17-0.442-0.34-0.442-0.51,0l-2.788,7.921c-0.034,0.136,0,0.204,0.102,0.204
		H53.192z"></path>
	<path fill="#6D6E71" d="M61.591,48.865c-0.408-0.204-0.442-0.306-0.442-1.088c0-1.428,0.136-2.583,0.17-3.06
		c0-0.306,0.068-0.476,0.238-0.476s0.272,0.102,0.272,0.34c0,0.238,0,0.646,0.102,1.054c0.476,2.108,2.72,2.856,4.726,2.856
		c2.958,0,4.487-1.666,4.487-3.842c0-2.074-1.122-3.06-3.773-5.032l-1.36-1.02c-3.23-2.414-4.284-4.182-4.284-6.188
		c0-3.4,2.686-5.439,6.629-5.439c1.19,0,2.38,0.17,3.094,0.34c0.578,0.136,0.816,0.136,1.054,0.136c0.238,0,0.306,0.034,0.306,0.204
		c0,0.136-0.136,1.088-0.136,3.06c0,0.442-0.034,0.646-0.238,0.646s-0.238-0.136-0.272-0.374c-0.034-0.34-0.272-1.122-0.442-1.428
		c-0.204-0.34-1.19-1.428-3.875-1.428c-2.176,0-3.978,1.088-3.978,3.128c0,1.835,0.918,2.89,3.876,4.896l0.85,0.578
		c3.638,2.482,4.896,4.488,4.896,6.969c0,1.7-0.646,3.536-2.788,4.93c-1.258,0.816-3.127,1.02-4.759,1.02
		C64.548,49.647,62.814,49.443,61.591,48.865z"></path>
	<path fill="#6D6E71" d="M78.522,35.777c0-4.488,0-5.304-0.068-6.222c-0.068-0.986-0.238-1.462-1.224-1.598
		c-0.238-0.034-0.748-0.068-1.02-0.068c-0.102,0-0.238-0.136-0.238-0.238c0-0.17,0.136-0.238,0.476-0.238
		c1.36,0,3.297,0.068,3.467,0.068c0.204,0,6.459,0.034,7.14,0c0.578-0.034,1.122-0.136,1.36-0.17
		c0.136-0.034,0.272-0.136,0.408-0.136c0.102,0,0.136,0.136,0.136,0.272c0,0.204-0.17,0.544-0.238,1.36
		c-0.034,0.272-0.102,1.563-0.17,1.904c-0.034,0.136-0.136,0.306-0.272,0.306c-0.17,0-0.238-0.136-0.238-0.374
		c0-0.204-0.034-0.68-0.17-1.02c-0.204-0.476-0.51-0.68-2.142-0.884c-0.51-0.068-3.978-0.102-4.317-0.102
		c-0.136,0-0.17,0.102-0.17,0.306v7.853c0,0.204,0,0.306,0.17,0.306c0.374,0,4.317,0,4.998-0.068
		c0.714-0.068,1.156-0.102,1.462-0.408c0.204-0.204,0.34-0.374,0.442-0.374s0.17,0.068,0.17,0.238s-0.17,0.646-0.238,1.598
		c-0.068,0.578-0.136,1.666-0.136,1.87c0,0.238-0.068,0.544-0.272,0.544c-0.136,0-0.204-0.102-0.204-0.272
		c0-0.272,0-0.578-0.136-0.952c-0.102-0.408-0.374-0.748-1.53-0.884c-0.816-0.102-4.012-0.136-4.521-0.136
		c-0.17,0-0.204,0.102-0.204,0.204v2.414c0,0.986-0.034,4.352,0,4.929c0.068,1.938,0.612,2.312,3.569,2.312
		c0.782,0,2.21,0,2.992-0.306c0.782-0.34,1.189-0.85,1.359-2.006c0.068-0.34,0.136-0.442,0.306-0.442s0.204,0.238,0.204,0.442
		s-0.238,2.176-0.408,2.788c-0.204,0.748-0.51,0.748-1.666,0.748c-2.244,0-3.978-0.068-5.202-0.102
		c-1.258-0.068-2.04-0.068-2.482-0.068c-0.068,0-0.646,0-1.292,0.034c-0.578,0.034-1.258,0.068-1.734,0.068
		c-0.306,0-0.476-0.068-0.476-0.238c0-0.102,0.068-0.238,0.238-0.238c0.272,0,0.646-0.102,0.918-0.136
		c0.578-0.102,0.646-0.68,0.782-1.53c0.17-1.189,0.17-3.467,0.17-6.255V35.777z"></path>
	<path fill="#6D6E71" d="M94.536,35.777c0-4.488,0-5.304-0.068-6.222c-0.068-0.986-0.238-1.462-1.224-1.598
		c-0.238-0.034-0.748-0.068-1.02-0.068c-0.102,0-0.238-0.136-0.238-0.238c0-0.17,0.136-0.238,0.476-0.238
		c1.36,0,3.366,0.068,3.536,0.068c0.306,0,2.822-0.068,3.739-0.068c1.904,0,4.012,0.17,5.576,1.258
		c0.748,0.544,2.074,1.938,2.074,3.944c0,2.142-0.884,4.215-3.671,6.595c2.448,3.06,4.521,5.677,6.255,7.479
		c1.598,1.632,2.583,1.904,3.332,2.006c0.578,0.102,0.884,0.102,1.054,0.102s0.272,0.136,0.272,0.238c0,0.17-0.17,0.238-0.714,0.238
		h-1.87c-1.7,0-2.448-0.17-3.196-0.578c-1.292-0.68-2.38-2.074-4.08-4.25c-1.258-1.564-2.583-3.434-3.229-4.215
		c-0.136-0.136-0.204-0.17-0.408-0.17l-3.808-0.068c-0.136,0-0.204,0.068-0.204,0.238v0.68c0,2.788,0,5.032,0.136,6.221
		c0.102,0.85,0.272,1.394,1.19,1.53c0.408,0.068,1.054,0.136,1.326,0.136c0.204,0,0.238,0.136,0.238,0.238
		c0,0.136-0.136,0.238-0.476,0.238c-1.632,0-3.536-0.102-3.672-0.102c-0.034,0-2.04,0.102-2.958,0.102
		c-0.306,0-0.476-0.068-0.476-0.238c0-0.102,0.068-0.238,0.238-0.238c0.272,0,0.646-0.068,0.918-0.136
		c0.578-0.136,0.646-0.68,0.782-1.53c0.17-1.189,0.17-3.467,0.17-6.255V35.777z M97.12,38.225c0,0.17,0.068,0.272,0.204,0.374
		c0.442,0.238,1.972,0.442,3.298,0.442c0.714,0,1.53-0.034,2.244-0.51c1.02-0.68,1.802-2.209,1.802-4.419
		c0-3.604-1.972-5.677-5.167-5.677c-0.884,0-1.836,0.102-2.142,0.17c-0.136,0.068-0.238,0.17-0.238,0.34V38.225z"></path>
</g>
<g>
	<path fill="#174A7C" d="M121.233,48.865c-0.408-0.204-0.442-0.306-0.442-1.088c0-1.428,0.136-2.583,0.17-3.06
		c0-0.306,0.068-0.476,0.238-0.476s0.272,0.102,0.272,0.34c0,0.238,0,0.646,0.102,1.054c0.476,2.108,2.72,2.855,4.726,2.855
		c2.958,0,4.487-1.666,4.487-3.841c0-2.074-1.122-3.06-3.773-5.032l-1.36-1.02c-3.229-2.414-4.284-4.182-4.284-6.188
		c0-3.4,2.686-5.439,6.629-5.439c1.19,0,2.38,0.17,3.094,0.34c0.578,0.136,0.816,0.136,1.054,0.136c0.238,0,0.306,0.034,0.306,0.204
		c0,0.136-0.136,1.088-0.136,3.06c0,0.442-0.034,0.646-0.238,0.646s-0.238-0.136-0.272-0.374c-0.034-0.34-0.272-1.122-0.442-1.428
		c-0.204-0.34-1.19-1.428-3.875-1.428c-2.176,0-3.978,1.088-3.978,3.128c0,1.835,0.917,2.89,3.875,4.896l0.85,0.578
		c3.638,2.482,4.896,4.488,4.896,6.969c0,1.7-0.646,3.536-2.788,4.93c-1.258,0.816-3.127,1.02-4.759,1.02
		C124.19,49.647,122.457,49.443,121.233,48.865z"></path>
	<path fill="#174A7C" d="M137.314,35.777c0-4.488,0-5.304-0.068-6.222c-0.068-0.917-0.238-1.461-1.224-1.598
		c-0.238-0.034-0.748-0.068-1.02-0.068c-0.102,0-0.238-0.136-0.238-0.238c0-0.17,0.136-0.238,0.476-0.238
		c1.36,0,3.162,0.068,3.434,0.068s2.142-0.068,3.025-0.068c0.34,0,0.51,0.068,0.51,0.238c0,0.102-0.136,0.238-0.272,0.238
		c-0.204,0-0.374,0-0.748,0.068c-0.782,0.136-0.952,0.646-1.02,1.598c-0.068,0.918-0.068,1.734-0.068,6.222v4.045
		c0,4.182,0.918,5.916,2.21,7.071c1.461,1.326,2.753,1.564,4.454,1.564c1.835,0,3.604-0.816,4.623-2.04
		c1.394-1.666,1.7-4.045,1.7-7.003v-3.638c0-4.488-0.034-5.304-0.068-6.222c-0.034-0.917-0.204-1.461-1.189-1.598
		c-0.238-0.034-0.748-0.068-1.02-0.068c-0.136,0-0.238-0.136-0.238-0.238c0-0.17,0.136-0.238,0.476-0.238
		c1.326,0,3.06,0.068,3.229,0.068c0.204,0,1.633-0.068,2.516-0.068c0.34,0,0.477,0.068,0.477,0.238c0,0.102-0.102,0.238-0.238,0.238
		c-0.204,0-0.374,0-0.748,0.068c-0.815,0.17-0.986,0.646-1.054,1.598c-0.067,0.918-0.034,1.734-0.034,6.222v3.094
		c0,3.127-0.408,6.629-2.788,8.669c-2.176,1.87-4.487,2.108-6.255,2.108c-0.986,0-4.113-0.068-6.221-2.04
		c-1.462-1.36-2.618-3.366-2.618-7.581V35.777z"></path>
	<path fill="#174A7C" d="M161.012,35.777c0-4.488,0-5.304-0.067-6.222c-0.068-0.986-0.238-1.461-1.225-1.598
		c-0.238-0.034-0.748-0.068-1.02-0.068c-0.103,0-0.238-0.136-0.238-0.238c0-0.17,0.136-0.238,0.477-0.238
		c1.359,0,3.365,0.068,3.535,0.068c0.306,0,2.822-0.068,3.739-0.068c1.904,0,4.012,0.17,5.575,1.258
		c0.748,0.544,2.074,1.938,2.074,3.944c0,2.142-0.884,4.215-3.672,6.595c2.448,3.06,4.521,5.677,6.256,7.479
		c1.598,1.632,2.584,1.904,3.332,2.006c0.577,0.102,0.883,0.102,1.053,0.102s0.272,0.136,0.272,0.238c0,0.17-0.17,0.238-0.714,0.238
		h-1.869c-1.7,0-2.448-0.17-3.196-0.578c-1.292-0.68-2.38-2.074-4.079-4.25c-1.258-1.564-2.584-3.434-3.23-4.215
		c-0.136-0.136-0.203-0.17-0.408-0.17l-3.807-0.068c-0.137,0-0.205,0.068-0.205,0.238v0.68c0,2.788,0,5.032,0.137,6.222
		c0.102,0.85,0.271,1.394,1.189,1.53c0.408,0.068,1.055,0.136,1.326,0.136c0.204,0,0.238,0.136,0.238,0.238
		c0,0.136-0.137,0.238-0.477,0.238c-1.631,0-3.535-0.102-3.672-0.102c-0.033,0-2.039,0.102-2.957,0.102
		c-0.307,0-0.477-0.068-0.477-0.238c0-0.102,0.068-0.238,0.238-0.238c0.272,0,0.646-0.068,0.918-0.136
		c0.578-0.136,0.646-0.68,0.782-1.53c0.17-1.19,0.17-3.468,0.17-6.256V35.777z M163.595,38.225c0,0.17,0.068,0.272,0.205,0.374
		c0.441,0.238,1.971,0.442,3.297,0.442c0.715,0,1.53-0.034,2.244-0.51c1.02-0.68,1.802-2.209,1.802-4.419
		c0-3.604-1.972-5.677-5.167-5.677c-0.885,0-1.836,0.102-2.143,0.17c-0.136,0.068-0.238,0.17-0.238,0.34V38.225z"></path>
	<path fill="#174A7C" d="M195.69,41.896c0-2.346-0.068-2.686-1.292-2.923c-0.238-0.034-0.748-0.068-1.021-0.068
		c-0.102,0-0.237-0.136-0.237-0.238c0-0.204,0.136-0.238,0.476-0.238c1.36,0,3.365,0.068,3.536,0.068
		c0.136,0,2.005-0.068,2.923-0.068c0.341,0,0.477,0.034,0.477,0.238c0,0.102-0.136,0.238-0.238,0.238c-0.203,0-0.408,0-0.748,0.068
		c-0.815,0.136-1.054,0.578-1.121,1.598c-0.034,0.918-0.034,1.768-0.034,2.992v3.229c0,1.326-0.034,1.36-0.408,1.564
		c-1.903,0.986-4.624,1.292-6.357,1.292c-2.278,0-6.527-0.272-9.858-3.094c-1.836-1.53-3.57-4.624-3.57-8.227
		c0-4.624,2.346-7.887,4.998-9.485c2.686-1.632,5.678-1.835,7.955-1.835c1.903,0,4.012,0.34,4.59,0.476
		c0.611,0.136,1.665,0.306,2.413,0.306c0.306,0,0.374,0.136,0.374,0.272c0,0.408-0.17,1.19-0.17,4.08
		c0,0.476-0.136,0.612-0.34,0.612c-0.17,0-0.204-0.17-0.204-0.442c-0.034-0.374-0.204-1.224-0.68-1.904
		c-0.748-1.088-3.026-2.244-6.901-2.244c-1.802,0-3.978,0.136-6.256,1.87c-1.733,1.326-2.957,3.91-2.957,7.275
		c0,4.08,2.107,7.003,3.161,7.989c2.38,2.209,4.896,3.025,7.649,3.025c1.054,0,2.447-0.102,3.229-0.544
		c0.374-0.204,0.612-0.34,0.612-0.884V41.896z"></path>
	<path fill="#174A7C" d="M204.701,35.777c0-4.488,0-5.304-0.067-6.222c-0.068-0.986-0.238-1.461-1.225-1.598
		c-0.238-0.034-0.748-0.068-1.02-0.068c-0.103,0-0.238-0.136-0.238-0.238c0-0.17,0.136-0.238,0.477-0.238
		c1.359,0,3.297,0.068,3.467,0.068c0.204,0,6.459,0.034,7.14,0c0.577-0.034,1.122-0.136,1.36-0.17
		c0.135-0.034,0.271-0.136,0.407-0.136c0.103,0,0.136,0.136,0.136,0.272c0,0.204-0.17,0.544-0.238,1.36
		c-0.033,0.272-0.102,1.563-0.17,1.904c-0.033,0.136-0.135,0.306-0.271,0.306c-0.17,0-0.238-0.136-0.238-0.374
		c0-0.204-0.033-0.68-0.17-1.02c-0.203-0.476-0.51-0.68-2.142-0.884c-0.51-0.068-3.978-0.102-4.317-0.102
		c-0.136,0-0.17,0.102-0.17,0.306v7.854c0,0.204,0,0.306,0.17,0.306c0.374,0,4.317,0,4.998-0.068
		c0.713-0.068,1.155-0.102,1.461-0.408c0.204-0.204,0.34-0.374,0.442-0.374s0.17,0.068,0.17,0.238s-0.17,0.646-0.237,1.598
		c-0.068,0.578-0.137,1.666-0.137,1.87c0,0.238-0.068,0.544-0.271,0.544c-0.137,0-0.205-0.102-0.205-0.272
		c0-0.272,0-0.578-0.135-0.952c-0.103-0.408-0.375-0.748-1.53-0.884c-0.815-0.102-4.012-0.136-4.521-0.136
		c-0.17,0-0.204,0.102-0.204,0.204v2.414c0,0.986-0.034,4.352,0,4.93c0.068,1.938,0.611,2.312,3.569,2.312
		c0.782,0,2.21,0,2.992-0.306c0.782-0.34,1.189-0.85,1.359-2.006c0.068-0.34,0.136-0.442,0.306-0.442s0.205,0.238,0.205,0.442
		s-0.238,2.176-0.408,2.788c-0.204,0.748-0.51,0.748-1.666,0.748c-2.244,0-3.978-0.068-5.201-0.102
		c-1.258-0.068-2.04-0.068-2.482-0.068c-0.068,0-0.646,0-1.291,0.034c-0.578,0.034-1.258,0.068-1.734,0.068
		c-0.307,0-0.477-0.068-0.477-0.238c0-0.102,0.068-0.238,0.238-0.238c0.272,0,0.646-0.102,0.918-0.136
		c0.578-0.102,0.646-0.68,0.782-1.53c0.17-1.19,0.17-3.468,0.17-6.256V35.777z"></path>
	<path fill="#174A7C" d="M220.715,35.777c0-4.488,0-5.304-0.067-6.222c-0.068-0.986-0.238-1.461-1.225-1.598
		c-0.238-0.034-0.748-0.068-1.02-0.068c-0.103,0-0.238-0.136-0.238-0.238c0-0.17,0.136-0.238,0.477-0.238
		c1.359,0,3.365,0.068,3.535,0.068c0.306,0,2.822-0.068,3.739-0.068c1.904,0,4.012,0.17,5.575,1.258
		c0.748,0.544,2.074,1.938,2.074,3.944c0,2.142-0.884,4.215-3.672,6.595c2.448,3.06,4.521,5.677,6.256,7.479
		c1.598,1.632,2.584,1.904,3.332,2.006c0.577,0.102,0.883,0.102,1.053,0.102s0.272,0.136,0.272,0.238c0,0.17-0.17,0.238-0.714,0.238
		h-1.869c-1.7,0-2.448-0.17-3.196-0.578c-1.292-0.68-2.38-2.074-4.079-4.25c-1.258-1.564-2.584-3.434-3.23-4.215
		c-0.136-0.136-0.203-0.17-0.408-0.17l-3.807-0.068c-0.137,0-0.205,0.068-0.205,0.238v0.68c0,2.788,0,5.032,0.137,6.222
		c0.102,0.85,0.271,1.394,1.189,1.53c0.408,0.068,1.055,0.136,1.326,0.136c0.204,0,0.238,0.136,0.238,0.238
		c0,0.136-0.137,0.238-0.477,0.238c-1.631,0-3.535-0.102-3.672-0.102c-0.033,0-2.039,0.102-2.957,0.102
		c-0.307,0-0.477-0.068-0.477-0.238c0-0.102,0.068-0.238,0.238-0.238c0.272,0,0.646-0.068,0.918-0.136
		c0.578-0.136,0.646-0.68,0.782-1.53c0.17-1.19,0.17-3.468,0.17-6.256V35.777z M223.298,38.225c0,0.17,0.068,0.272,0.205,0.374
		c0.441,0.238,1.971,0.442,3.297,0.442c0.715,0,1.53-0.034,2.244-0.51c1.02-0.68,1.802-2.209,1.802-4.419
		c0-3.604-1.972-5.677-5.167-5.677c-0.885,0-1.836,0.102-2.143,0.17c-0.136,0.068-0.238,0.17-0.238,0.34V38.225z"></path>
	<path fill="#174A7C" d="M243.63,41.76c0-1.564-0.203-2.142-0.646-2.958c-0.237-0.442-4.283-6.867-5.304-8.397
		c-0.713-1.088-1.428-1.734-1.971-2.108c-0.442-0.272-1.021-0.408-1.258-0.408c-0.171,0-0.307-0.136-0.307-0.272
		c0-0.136,0.102-0.204,0.374-0.204c0.578,0,2.821,0.068,2.958,0.068c0.203,0,1.428-0.068,2.584-0.068
		c0.34,0,0.407,0.068,0.407,0.204c0,0.102-0.204,0.204-0.476,0.306c-0.238,0.102-0.374,0.238-0.374,0.476
		c0,0.408,0.204,0.748,0.407,1.122l5.439,9.009c0.612-1.224,4.352-7.411,4.896-8.363c0.373-0.646,0.51-1.122,0.51-1.496
		c0-0.408-0.137-0.646-0.477-0.748c-0.271-0.068-0.441-0.204-0.441-0.34c0-0.102,0.17-0.17,0.476-0.17
		c0.782,0,1.836,0.068,2.074,0.068c0.204,0,2.346-0.068,2.923-0.068c0.205,0,0.375,0.068,0.375,0.17
		c0,0.136-0.137,0.306-0.375,0.306c-0.34,0-0.918,0.102-1.393,0.374c-0.578,0.34-0.851,0.646-1.496,1.428
		c-0.986,1.156-5.202,7.955-5.814,9.179c-0.51,1.02-0.373,1.938-0.373,2.89v2.481c0,0.476,0,1.7,0.102,2.89
		c0.068,0.85,0.271,1.394,1.156,1.53c0.408,0.068,1.088,0.136,1.359,0.136c0.17,0,0.238,0.136,0.238,0.238
		c0,0.136-0.17,0.238-0.477,0.238c-1.665,0-3.604-0.102-3.773-0.102c-0.136,0-2.039,0.102-2.924,0.102
		c-0.34,0-0.476-0.068-0.476-0.238c0-0.102,0.068-0.238,0.238-0.238c0.272,0,0.612-0.068,0.884-0.136
		c0.611-0.136,0.816-0.68,0.884-1.53c0.067-1.19,0.067-2.414,0.067-2.89V41.76z"></path>
</g>
<g>
	<path fill="#6D6E71" d="M5.002,23.008c-1.288-1.718-1.534-2.977-1.564-4.357c-0.031-2.424,2.117-5.646,7.456-5.646
		c1.504,0,2.885,0.307,3.713,0.645c0.521,0.184,0.521,0.429,0.521,0.797c0,1.013-0.245,3.468-0.337,3.928
		c-0.062,0.46-0.185,0.522-0.368,0.522c-0.185,0-0.215-0.123-0.215-0.583c0-0.798-0.215-1.78-0.89-2.578
		c-0.614-0.736-1.688-1.381-3.406-1.381c-1.289,0-3.283,0.89-3.283,3.498c0,2.884,2.639,5.339,5.094,8.07
		c1.043,1.197,4.817,4.603,5.4,5.125c0.613-0.859,1.473-2.854,1.473-4.726c0-0.46-0.123-1.013-0.583-1.412
		c-0.398-0.368-1.043-0.46-1.504-0.46c-0.184,0-0.368-0.062-0.368-0.246c0-0.246,0.246-0.307,0.491-0.307
		c0.736,0,1.964,0.031,3.683,0.215c0.583,0.062,1.043,0.246,1.043,0.614c0,2.363-1.258,5.217-3.007,7.272
		c2.056,1.688,3.437,2.516,4.265,3.007c0.982,0.583,2.67,1.074,3.284,1.074c0.275,0,0.429,0.031,0.429,0.276
		c0,0.184-0.245,0.276-0.92,0.276h-2.363c-3.498,0-4.603-0.338-7.241-2.363c-1.013,0.92-3.068,2.792-7.272,2.792
		C1.964,37.062,0,32.95,0,30.28C0,26.69,3.161,23.897,5.002,23.008z M14.606,33.288c-1.779-1.535-4.726-4.419-5.523-5.278
		C8.285,27.15,6.321,24.941,5.8,24.174c-1.043,0.767-2.117,2.209-2.117,4.664c0,3.836,2.7,6.291,5.892,6.291
		C11.938,35.128,13.962,33.901,14.606,33.288z"></path>
</g>
<g>
	<path fill="#6D6E71" d="M135.268,74.907c-2.924-2.516-3.638-5.813-3.638-8.566c0-1.938,0.714-5.304,3.365-7.888
		c1.802-1.733,4.521-3.094,9.111-3.094c1.189,0,2.89,0.103,4.352,0.34c1.122,0.204,2.073,0.408,3.06,0.442
		c0.306,0,0.374,0.136,0.374,0.306c0,0.238-0.068,0.578-0.136,1.632c-0.034,0.952-0.034,2.55-0.068,2.958
		c-0.034,0.441-0.17,0.612-0.34,0.612c-0.204,0-0.238-0.204-0.238-0.612c0-1.122-0.476-2.277-1.258-2.89
		c-1.054-0.884-3.229-1.598-5.881-1.598c-3.842,0-5.678,1.02-6.731,2.006c-2.21,2.039-2.686,4.623-2.686,7.547
		c0,5.541,4.385,10.471,10.776,10.471c2.244,0,3.74-0.17,4.93-1.359c0.646-0.646,1.054-1.87,1.156-2.414
		c0.067-0.306,0.102-0.408,0.306-0.408c0.136,0,0.271,0.204,0.271,0.408s-0.407,2.72-0.714,3.706
		c-0.17,0.544-0.237,0.646-0.748,0.85c-1.224,0.476-3.467,0.646-5.405,0.646C140.639,78,137.614,76.947,135.268,74.907z"></path>
	<path fill="#6D6E71" d="M156.382,64.13c0-4.487,0-5.304-0.068-6.222c-0.068-0.985-0.238-1.462-1.225-1.598
		c-0.238-0.034-0.748-0.068-1.02-0.068c-0.102,0-0.238-0.136-0.238-0.237c0-0.17,0.137-0.238,0.477-0.238
		c1.359,0,3.297,0.068,3.467,0.068c0.205,0,6.461,0.033,7.141,0c0.578-0.034,1.121-0.137,1.359-0.17
		c0.137-0.034,0.271-0.137,0.408-0.137c0.102,0,0.135,0.137,0.135,0.272c0,0.204-0.17,0.544-0.236,1.359
		c-0.035,0.272-0.104,1.564-0.17,1.904c-0.035,0.136-0.137,0.306-0.273,0.306c-0.17,0-0.238-0.136-0.238-0.374
		c0-0.204-0.033-0.68-0.17-1.02c-0.203-0.477-0.51-0.68-2.141-0.884c-0.51-0.068-3.979-0.103-4.318-0.103
		c-0.135,0-0.17,0.103-0.17,0.307v7.853c0,0.204,0,0.307,0.17,0.307c0.375,0,4.318,0,4.998-0.068
		c0.715-0.068,1.156-0.102,1.461-0.408c0.205-0.204,0.342-0.374,0.443-0.374s0.17,0.068,0.17,0.238s-0.17,0.646-0.238,1.598
		c-0.068,0.578-0.137,1.666-0.137,1.87c0,0.238-0.068,0.544-0.271,0.544c-0.137,0-0.203-0.103-0.203-0.272
		c0-0.271,0-0.578-0.137-0.951c-0.102-0.408-0.373-0.748-1.529-0.885c-0.816-0.102-4.012-0.136-4.521-0.136
		c-0.17,0-0.205,0.103-0.205,0.204v2.414c0,0.985-0.033,4.352,0,4.93c0.068,1.938,0.613,2.312,3.57,2.312
		c0.781,0,2.209,0,2.992-0.306c0.781-0.341,1.189-0.851,1.359-2.006c0.068-0.341,0.137-0.442,0.307-0.442s0.203,0.238,0.203,0.442
		c0,0.203-0.238,2.176-0.408,2.787c-0.203,0.748-0.51,0.748-1.666,0.748c-2.244,0-3.977-0.068-5.201-0.102
		c-1.258-0.068-2.039-0.068-2.482-0.068c-0.066,0-0.645,0-1.291,0.034c-0.578,0.034-1.258,0.067-1.734,0.067
		c-0.305,0-0.475-0.067-0.475-0.237c0-0.103,0.066-0.238,0.236-0.238c0.273,0,0.646-0.102,0.918-0.136
		c0.578-0.103,0.646-0.68,0.783-1.53c0.17-1.189,0.17-3.468,0.17-6.255V64.13z"></path>
	<path fill="#6D6E71" d="M173.653,73.683c0.068,2.38,0.34,3.094,1.156,3.298c0.543,0.136,1.223,0.17,1.494,0.17
		c0.137,0,0.238,0.103,0.238,0.238c0,0.17-0.203,0.237-0.543,0.237c-1.701,0-2.891-0.102-3.162-0.102s-1.529,0.102-2.891,0.102
		c-0.305,0-0.475-0.033-0.475-0.237c0-0.136,0.102-0.238,0.238-0.238c0.236,0,0.781-0.034,1.223-0.17
		c0.748-0.204,0.85-0.986,0.85-3.604V56.821c0-1.155,0.17-1.462,0.408-1.462c0.34,0,0.85,0.578,1.156,0.884
		c0.477,0.477,4.828,5.1,9.451,9.859c2.957,3.06,6.154,6.493,7.072,7.445l-0.307-14.482c-0.035-1.87-0.205-2.516-1.123-2.686
		c-0.543-0.103-1.223-0.137-1.461-0.137c-0.203,0-0.238-0.17-0.238-0.271c0-0.17,0.238-0.204,0.578-0.204
		c1.359,0,2.787,0.068,3.127,0.068c0.342,0,1.326-0.068,2.551-0.068c0.307,0,0.543,0.034,0.543,0.204
		c0,0.102-0.135,0.271-0.34,0.271c-0.135,0-0.373,0-0.713,0.068c-0.986,0.204-1.055,0.782-1.055,2.516l-0.068,16.931
		c0,1.903-0.033,2.073-0.236,2.073c-0.307,0-0.613-0.237-2.279-1.768c-0.305-0.271-4.623-4.521-7.785-7.819
		c-3.467-3.638-6.832-7.173-7.75-8.193L173.653,73.683z"></path>
	<path fill="#6D6E71" d="M204.524,69.23c0,2.787,0,5.065,0.137,6.255c0.102,0.851,0.238,1.395,1.156,1.53
		c0.408,0.067,1.088,0.136,1.359,0.136c0.203,0,0.238,0.136,0.238,0.238c0,0.136-0.137,0.237-0.477,0.237
		c-1.631,0-3.535-0.102-3.705-0.102c-0.137,0-2.211,0.102-3.094,0.102c-0.34,0-0.477-0.067-0.477-0.237
		c0-0.103,0.068-0.204,0.238-0.204c0.271,0,0.611-0.068,0.885-0.136c0.611-0.137,0.781-0.714,0.883-1.564
		c0.137-1.189,0.137-3.468,0.137-6.255V57.093l-4.318,0.067c-1.869,0.034-2.584,0.238-3.025,0.918
		c-0.34,0.51-0.373,0.714-0.477,0.918c-0.068,0.238-0.17,0.272-0.305,0.272c-0.068,0-0.205-0.068-0.205-0.238
		c0-0.306,0.613-2.89,0.646-3.128c0.068-0.17,0.203-0.544,0.307-0.544c0.203,0,0.51,0.238,1.324,0.34
		c0.852,0.103,2.006,0.137,2.346,0.137h11.287c0.986,0,1.666-0.068,2.143-0.137c0.441-0.067,0.713-0.136,0.85-0.136
		s0.137,0.17,0.137,0.34c0,0.884-0.104,2.958-0.104,3.298c0,0.238-0.135,0.374-0.271,0.374c-0.135,0-0.203-0.102-0.238-0.51
		l-0.033-0.306c-0.102-0.885-0.748-1.53-3.604-1.599l-3.74-0.067V69.23z"></path>
	<path fill="#6D6E71" d="M216.017,64.13c0-4.487,0-5.304-0.068-6.222c-0.066-0.985-0.236-1.462-1.223-1.598
		c-0.238-0.034-0.748-0.068-1.02-0.068c-0.104,0-0.238-0.136-0.238-0.237c0-0.17,0.135-0.238,0.475-0.238
		c1.361,0,3.299,0.068,3.469,0.068c0.203,0,6.459,0.033,7.139,0c0.578-0.034,1.123-0.137,1.359-0.17
		c0.137-0.034,0.273-0.137,0.408-0.137c0.104,0,0.137,0.137,0.137,0.272c0,0.204-0.17,0.544-0.238,1.359
		c-0.033,0.272-0.102,1.564-0.17,1.904c-0.033,0.136-0.137,0.306-0.271,0.306c-0.17,0-0.238-0.136-0.238-0.374
		c0-0.204-0.033-0.68-0.17-1.02c-0.203-0.477-0.51-0.68-2.143-0.884c-0.51-0.068-3.977-0.103-4.316-0.103
		c-0.137,0-0.17,0.103-0.17,0.307v7.853c0,0.204,0,0.307,0.17,0.307c0.373,0,4.316,0,4.996-0.068
		c0.715-0.068,1.156-0.102,1.463-0.408c0.203-0.204,0.34-0.374,0.441-0.374s0.17,0.068,0.17,0.238s-0.17,0.646-0.238,1.598
		c-0.066,0.578-0.135,1.666-0.135,1.87c0,0.238-0.068,0.544-0.271,0.544c-0.137,0-0.205-0.103-0.205-0.272
		c0-0.271,0-0.578-0.137-0.951c-0.102-0.408-0.373-0.748-1.529-0.885c-0.816-0.102-4.012-0.136-4.521-0.136
		c-0.17,0-0.203,0.103-0.203,0.204v2.414c0,0.985-0.035,4.352,0,4.93c0.068,1.938,0.611,2.312,3.568,2.312
		c0.783,0,2.211,0,2.992-0.306c0.781-0.341,1.189-0.851,1.359-2.006c0.068-0.341,0.137-0.442,0.307-0.442s0.203,0.238,0.203,0.442
		c0,0.203-0.236,2.176-0.406,2.787c-0.205,0.748-0.51,0.748-1.666,0.748c-2.244,0-3.979-0.068-5.201-0.102
		c-1.258-0.068-2.041-0.068-2.482-0.068c-0.068,0-0.646,0-1.293,0.034c-0.576,0.034-1.258,0.067-1.732,0.067
		c-0.307,0-0.477-0.067-0.477-0.237c0-0.103,0.068-0.238,0.238-0.238c0.271,0,0.646-0.102,0.918-0.136
		c0.578-0.103,0.646-0.68,0.781-1.53c0.17-1.189,0.17-3.468,0.17-6.255V64.13z"></path>
	<path fill="#6D6E71" d="M232.03,64.13c0-4.487,0-5.304-0.068-6.222c-0.066-0.985-0.236-1.462-1.223-1.598
		c-0.238-0.034-0.748-0.068-1.02-0.068c-0.104,0-0.238-0.136-0.238-0.237c0-0.17,0.135-0.238,0.475-0.238
		c1.361,0,3.367,0.068,3.537,0.068c0.305,0,2.82-0.068,3.738-0.068c1.904,0,4.012,0.17,5.576,1.258
		c0.748,0.544,2.074,1.938,2.074,3.943c0,2.143-0.885,4.216-3.672,6.596c2.447,3.06,4.521,5.678,6.256,7.479
		c1.598,1.632,2.584,1.903,3.33,2.006c0.578,0.102,0.885,0.102,1.055,0.102s0.271,0.136,0.271,0.238c0,0.17-0.17,0.237-0.713,0.237
		h-1.871c-1.699,0-2.447-0.17-3.195-0.577c-1.291-0.681-2.379-2.074-4.078-4.25c-1.26-1.563-2.584-3.434-3.23-4.216
		c-0.137-0.136-0.205-0.17-0.408-0.17l-3.807-0.067c-0.137,0-0.205,0.067-0.205,0.237v0.681c0,2.787,0,5.031,0.137,6.221
		c0.102,0.851,0.271,1.395,1.189,1.53c0.408,0.067,1.055,0.136,1.326,0.136c0.203,0,0.238,0.136,0.238,0.238
		c0,0.136-0.137,0.237-0.477,0.237c-1.633,0-3.535-0.102-3.672-0.102c-0.033,0-2.039,0.102-2.957,0.102
		c-0.307,0-0.477-0.067-0.477-0.237c0-0.103,0.068-0.238,0.238-0.238c0.271,0,0.646-0.068,0.918-0.136
		c0.578-0.136,0.646-0.68,0.781-1.53c0.17-1.189,0.17-3.468,0.17-6.255V64.13z M234.614,66.578c0,0.17,0.068,0.272,0.205,0.374
		c0.441,0.238,1.971,0.442,3.297,0.442c0.713,0,1.529-0.034,2.244-0.51c1.02-0.681,1.801-2.21,1.801-4.42
		c0-3.604-1.971-5.678-5.166-5.678c-0.885,0-1.836,0.103-2.143,0.17c-0.137,0.068-0.238,0.17-0.238,0.341V66.578z"></path>
</g>
</svg>